<?xml version="1.0" encoding="UTF-8" standalone="no"?>
<svg viewBox="0 0 63.503868 63.504364"
   height="63.504364mm"
   width="63.503868mm">
  <g transform="translate(-74.081402,-116.41448)">
    <path
       style="stroke-width:0.264583"
       d="m 123.89351,140.33877 c -5.21732,-0.29845 -10.15154,2.22144 -12.98443,6.51907 0.17039,-0.64241 0.36142,-1.27926 0.57256,-1.91003 0.14526,-0.43391 0.47413,-0.79904 0.92631,-1.02843 5.15778,-2.61779 8.27643,-8.03963 7.94543,-13.81284 -0.4228,-7.37314 -6.53732,-13.38183 -13.92026,-13.67975 -4.00208,-0.16166 -7.791974,1.27397 -10.673551,4.04151 -2.8829,2.76886 -4.4704,6.49446 -4.4704,10.49073 0,5.50756 3.0607,10.47697 7.98777,12.96908 0.440002,0.22278 0.761211,0.58023 0.904081,1.007 0.21273,0.63474 0.40508,1.27609 0.57653,1.92247 -2.832896,-4.2971 -7.768963,-6.81805 -12.984165,-6.51881 -7.373408,0.42281 -13.382096,6.53759 -13.679752,13.92052 -0.161131,4.0013 1.274233,7.79198 4.041775,10.6733 2.768864,2.8829 6.494463,4.4704 10.490465,4.4704 4.945327,0 9.463881,-2.47306 12.137227,-6.54924 -1.330586,5.01756 -3.907892,9.68719 -7.499346,13.49614 -0.579438,0.61462 -0.738188,1.515 -0.403225,2.29076 0.334962,0.77576 1.09855,1.2782 1.943365,1.2782 h 3.381639 15.295567 3.38164 c 0.84481,0 1.60866,-0.50244 1.94336,-1.2782 0.3347,-0.77576 0.17621,-1.67587 -0.40323,-2.29076 -3.59145,-3.80895 -6.16849,-8.47884 -7.49935,-13.49614 2.67335,4.07618 7.19217,6.54924 12.1375,6.54924 3.996,0 7.7216,-1.5875 10.49047,-4.4704 2.76754,-2.88158 4.2029,-6.672 4.04151,-10.6733 -0.2974,-7.38293 -6.30635,-13.49771 -13.67949,-13.92052 z"
       id="path91" />
    <path
       id="path91-6"
       d="m 123.89351,140.33877 c -5.21732,-0.29845 -10.15154,2.22144 -12.98443,6.51907 0.17039,-0.64241 0.36142,-1.27927 0.57256,-1.91003 0.14526,-0.43391 0.47413,-0.79904 0.92631,-1.02843 5.15778,-2.61779 8.27643,-8.03963 7.94543,-13.81284 -0.4228,-7.37314 -6.53732,-13.38183 -13.92026,-13.67975 -4.00208,-0.16166 -7.79198,1.27397 -10.67356,4.04151 -2.8829,2.76886 -4.4704,6.49446 -4.4704,10.49073 0,5.50756 3.0607,10.47697 7.98777,12.96908 0.44001,0.22278 0.76122,0.58023 0.90409,1.007 0.21273,0.63474 0.40508,1.27609 0.57653,1.92247 -2.8329,-4.2971 -7.76897,-6.81805 -12.98417,-6.51881 -7.37341,0.42281 -13.3821,6.53759 -13.67976,13.92052 -0.16113,4.0013 1.27424,7.79198 4.04178,10.6733 2.76886,2.8829 6.49446,4.4704 10.49046,4.4704 4.94534,0 9.46389,-2.47306 12.13724,-6.54924 -1.33059,5.01756 -3.9079,9.68719 -7.49935,13.49614 -0.57944,0.61462 -0.73819,1.515 -0.40323,2.29076 0.33497,0.77576 1.09855,1.2782 1.94337,1.2782 h 3.38164 15.29557 3.38164 c 0.84481,0 1.60866,-0.50244 1.94336,-1.2782 0.3347,-0.77576 0.17621,-1.67587 -0.40323,-2.29076 -3.59145,-3.80895 -6.16849,-8.47884 -7.49935,-13.49614 2.67335,4.07618 7.19217,6.54924 12.1375,6.54924 3.996,0 7.7216,-1.5875 10.49047,-4.4704 2.76754,-2.88158 4.2029,-6.672 4.04151,-10.6733 -0.2974,-7.38293 -6.30635,-13.49771 -13.67949,-13.92052 z m -28.37128,-9.37948 c 0,-2.83316 1.12554,-5.47449 3.16945,-7.43743 1.93887,-1.86241 4.45955,-2.87364 7.13899,-2.87364 0.1434,0 0.28734,0.003 0.43153,0.009 5.23187,0.21113 9.56496,4.46854 9.86446,9.69221 0.23469,4.09416 -1.97696,7.93883 -5.63483,9.79541 -1.44991,0.7358 -2.52412,1.96426 -3.02498,3.45942 -0.812,2.42597 -1.36101,4.93819 -1.6338,7.47422 -0.27331,-2.54053 -0.82391,-5.05725 -1.63856,-7.48824 -0.49927,-1.48907 -1.56713,-2.71065 -3.00726,-3.43905 -3.49409,-1.76768 -5.665,-5.28982 -5.665,-9.19163 z m 16.85291,44.72623 H 99.29122 c 3.60707,-4.99957 5.88752,-10.89845 6.54183,-17.03414 0.65458,6.13569 2.93502,12.03431 6.54209,17.03414 z m 18.10332,-13.68558 c -1.96321,2.04391 -4.60455,3.16945 -7.43744,3.16945 -3.8862,0 -7.40198,-2.15794 -9.17469,-5.63193 -0.74957,-1.46922 -1.99046,-2.55216 -3.49382,-3.04905 -0.62098,-0.20505 -1.26842,-0.40005 -1.92432,-0.57891 -0.18388,-0.05 -0.37094,-0.0746 -0.55695,-0.0746 -0.49159,0 -0.97472,0.17145 -1.36048,0.49504 -0.35137,0.29473 -0.59241,0.69056 -0.69718,1.12474 -0.10478,-0.43418 -0.34581,-0.83001 -0.69718,-1.12474 -0.53181,-0.44609 -1.2483,-0.60299 -1.9177,-0.42043 -0.65616,0.17913 -1.3036,0.37386 -1.92458,0.57918 -1.50284,0.49688 -2.74373,1.57982 -3.49356,3.04905 -1.77297,3.47398 -5.28849,5.63192 -9.1747,5.63192 -2.83289,0 -5.47423,-1.12553 -7.43743,-3.16944 -1.96189,-2.04258 -2.97948,-4.73101 -2.86491,-7.57026 0.21087,-5.23187 4.46828,-9.56522 9.69222,-9.86472 4.08543,-0.2339 7.92718,1.97088 9.78694,5.6179 0.74718,1.46605 1.98437,2.54661 3.48324,3.04269 0.62283,0.20612 1.27291,0.40191 1.93199,0.58183 0.67045,0.18283 1.38721,0.0254 1.91876,-0.42122 0.35136,-0.29527 0.59213,-0.69188 0.69664,-1.12659 0.10451,0.43471 0.34529,0.83132 0.69665,1.12632 0.53181,0.44689 1.24884,0.60432 1.91876,0.42149 0.65855,-0.17965 1.3081,-0.37518 1.93093,-0.58129 1.49939,-0.49609 2.73711,-1.57718 3.48483,-3.04376 1.85949,-3.64649 5.70071,-5.85179 9.78641,-5.61711 5.22393,0.29951 9.48134,4.63259 9.69221,9.86473 0.11457,2.83898 -0.90276,5.52741 -2.86464,7.56973 z"
       style="stroke-width:0.264583" />
  </g>
</svg>
