<?xml version="1.0" encoding="UTF-8" standalone="no"?>
<svg
   xmlns:dc="http://purl.org/dc/elements/1.1/"
   xmlns:cc="http://creativecommons.org/ns#"
   xmlns:rdf="http://www.w3.org/1999/02/22-rdf-syntax-ns#"
   xmlns:svg="http://www.w3.org/2000/svg"
   xmlns="http://www.w3.org/2000/svg"
   xmlns:sodipodi="http://sodipodi.sourceforge.net/DTD/sodipodi-0.dtd"
   xmlns:inkscape="http://www.inkscape.org/namespaces/inkscape"
   inkscape:version="1.0 (4035a4f, 2020-05-01)"
   sodipodi:docname="diamond.svg"
   version="1.1"
   width="63.499996mm"
   height="63.5mm"
   viewBox="0 0 63.499996 63.5"
   id="svg406">
  <metadata
     id="metadata3511">
    <rdf:RDF>
      <cc:Work
         rdf:about="">
        <dc:format>image/svg+xml</dc:format>
        <dc:type
           rdf:resource="http://purl.org/dc/dcmitype/StillImage" />
      </cc:Work>
    </rdf:RDF>
  </metadata>
  <defs
     id="defs3509" />
  <sodipodi:namedview
     inkscape:current-layer="layer1"
     inkscape:window-maximized="0"
     inkscape:window-y="0"
     inkscape:window-x="0"
     inkscape:cy="120"
     inkscape:cx="119.99999"
     inkscape:zoom="2.7875"
     showgrid="false"
     id="namedview3507"
     inkscape:window-height="900"
     inkscape:window-width="1440"
     inkscape:pageshadow="2"
     inkscape:pageopacity="0"
     guidetolerance="10"
     gridtolerance="10"
     objecttolerance="10"
     borderopacity="1"
     bordercolor="#666666"
     pagecolor="#ffffff" />
  <g
     id="layer1"
     transform="translate(-74.083333,-116.05747)"
     style="display:inline">
    <path
       id="path95"
       d="m 74.954871,149.51932 c 9.626599,7.00114 22.165472,19.54001 29.166609,29.16634 0.3982,0.54769 1.03452,0.87181 1.71185,0.87181 0.67734,0 1.3134,-0.32412 1.71186,-0.87181 7.00114,-9.62633 19.54001,-22.1652 29.16661,-29.16634 0.54768,-0.3982 0.87153,-1.03452 0.87153,-1.71185 0,-0.67734 -0.32411,-1.3134 -0.87153,-1.71186 -9.6266,-7.00087 -22.16574,-19.54001 -29.16661,-29.16634 -0.3982,-0.54769 -1.03452,-0.8718 -1.71186,-0.8718 -0.67733,0 -1.31339,0.32411 -1.71185,0.8718 -7.001137,9.62633 -19.54001,22.1652 -29.166609,29.16634 -0.547688,0.3982 -0.871538,1.03452 -0.871538,1.71186 0,0.67733 0.32385,1.31365 0.871538,1.71185 z"
       style="fill-opacity:1;stroke-width:0" />
    <path
       style="display:inline;fill-opacity:1;stroke-width:0"
       d="m 74.954871,149.51932 c 9.626599,7.00114 22.165472,19.54001 29.166609,29.16634 0.3982,0.54769 1.03452,0.87181 1.71186,0.87181 0.67733,0 1.3134,-0.32412 1.71186,-0.87181 7.00114,-9.62633 19.54,-22.1652 29.1666,-29.16634 0.54768,-0.3982 0.87153,-1.03452 0.87153,-1.71185 0,-0.67734 -0.32411,-1.3134 -0.87153,-1.71186 -9.6266,-7.00087 -22.16573,-19.54001 -29.1666,-29.16634 -0.3982,-0.54769 -1.03453,-0.8718 -1.71186,-0.8718 -0.67734,0 -1.3134,0.32411 -1.71186,0.8718 -7.001137,9.62633 -19.54001,22.1652 -29.166609,29.16634 -0.547688,0.3982 -0.871538,1.03452 -0.871538,1.71186 0,0.67733 0.32385,1.31365 0.871538,1.71185 z m 30.878469,-27.82305 c 6.8908,8.89079 17.22014,19.22012 26.11119,26.1112 -8.89105,6.89107 -19.22039,17.2204 -26.11119,26.1112 -6.890817,-8.8908 -17.220149,-19.22013 -26.111207,-26.1112 8.890794,-6.89108 19.22013,-17.22041 26.111207,-26.1112 z"
       id="path95-0" />
  </g>
</svg>
