<?xml version="1.0" encoding="UTF-8" standalone="no"?>
<svg viewBox="0 0 63.448669 59.266666"
   height="59.266666mm"
   width="63.448669mm">
  <g
     transform="translate(-37.067331,47.020238)">
    <path
       style="stroke-width:0.264583"
       d="m 82.16265,-47.020238 c -5.10249,0 -9.927432,2.213239 -13.371248,6.033558 -3.443817,-3.820319 -8.268494,-6.033558 -13.371248,-6.033558 -10.119519,0 -18.352823,8.580173 -18.352823,19.126994 0,9.11516 5.205677,18.6192577 15.472569,28.24770974 7.485591,7.02045396 14.863762,11.41386126 15.174383,11.59721726 0.332317,0.196585 0.70485,0.294746 1.077383,0.294746 0.372534,0 0.745067,-0.09816 1.077384,-0.294746 C 70.179406,11.768327 77.557577,7.3749197 85.043433,0.35446574 95.310325,-9.2739863 100.516,-18.778084 100.516,-27.893244 c 0,-10.546821 -8.233302,-19.126994 -18.35335,-19.126994 z"
       id="path93" />
    <path
       id="path93-8"
       d="m 82.162652,-47.020238 c -5.10249,0 -9.92743,2.213239 -13.37125,6.033558 -3.44381,-3.820319 -8.26849,-6.033558 -13.37125,-6.033558 -10.11951,0 -18.35282,8.580173 -18.35282,19.126994 0,9.11516 5.20568,18.619259 15.47257,28.247711 7.48559,7.020454 14.86376,11.41386 15.17438,11.597216 0.33232,0.196585 0.70485,0.294746 1.07739,0.294746 0.37253,0 0.74506,-0.09816 1.07738,-0.294746 0.31036,-0.183356 7.68853,-4.576762 15.17438,-11.597216 10.2669,-9.628452 15.472568,-19.132551 15.472568,-28.247711 0,-10.546821 -8.233298,-19.126994 -18.353348,-19.126994 z m -13.37098,54.65498 c -5.20991,-3.338777 -27.491,-18.61238 -27.491,-35.527986 0,-8.212402 6.33412,-14.893661 14.11975,-14.893661 4.62068,0 8.95826,2.398977 11.60304,6.417469 0.39158,0.594783 1.05595,0.953029 1.76821,0.953029 0.71226,0 1.37662,-0.358246 1.76821,-0.953029 2.64477,-4.018492 6.98235,-6.417469 11.60303,-6.417469 7.78563,0 14.11976,6.681259 14.11976,14.893661 0,16.915606 -22.28162,32.189473 -27.491,35.527986 z"
       style="stroke-width:0.264583" />
  </g>
</svg>
