<?xml version="1.0" encoding="UTF-8" standalone="no"?>
<svg viewBox="0 0 61.37698 65.616333"
   height="65.616333mm"
   width="61.37698mm">
  <g
     transform="translate(-118.23413,-111.57874)"
     id="layer1">
    <path
       style="stroke-width:0.264583"
       d="m 149.96031,111.8504 c -0.64426,-0.36222 -1.4306,-0.36222 -2.07486,0 -1.21073,0.68077 -29.65132,16.90079 -29.65132,36.73078 0,9.77291 7.97851,17.72364 17.78529,17.72364 1.97485,0 3.89467,-0.31538 5.71156,-0.93001 -1.44224,3.01731 -3.34698,5.81422 -5.63801,8.25527 -0.57758,0.61542 -0.73422,1.515 -0.39899,2.28944 0.33523,0.77443 1.09855,1.27555 1.94231,1.27555 h 22.73776 c 0.84376,0 1.60708,-0.50138 1.94231,-1.27555 0.33549,-0.77444 0.17859,-1.67402 -0.399,-2.28944 -2.27435,-2.42332 -4.16956,-5.19986 -5.60863,-8.19494 1.76186,0.57441 3.61632,0.86942 5.51735,0.86942 9.80678,0 17.78503,-7.95073 17.78503,-17.72365 2.7e-4,-19.82972 -28.44006,-36.04974 -29.6508,-36.73051 z"
       id="path97" />
    <path
       id="path97-5"
       d="m 149.96031,111.8504 c -0.64426,-0.36223 -1.4306,-0.36223 -2.07486,0 -1.21073,0.68077 -29.65132,16.90078 -29.65132,36.73076 0,9.77292 7.97851,17.72365 17.78529,17.72365 1.97485,0 3.89467,-0.31538 5.71156,-0.93001 -1.44224,3.01731 -3.34698,5.81422 -5.63801,8.25527 -0.57758,0.61542 -0.73422,1.515 -0.39899,2.28943 0.33523,0.77444 1.09855,1.27556 1.94231,1.27556 h 22.73776 c 0.84376,0 1.60708,-0.50138 1.94231,-1.27556 0.33549,-0.77443 0.17859,-1.67401 -0.399,-2.28943 -2.27435,-2.42332 -4.16956,-5.19986 -5.60863,-8.19494 1.76186,0.57441 3.61632,0.86942 5.51735,0.86942 9.80678,0 17.78503,-7.95074 17.78503,-17.72366 2.7e-4,-19.82971 -28.44006,-36.04972 -29.6508,-36.73049 z m 11.86604,50.22108 c -2.98265,0 -5.81528,-0.95329 -8.19177,-2.75617 -0.72707,-0.55139 -1.72534,-0.5752 -2.47755,-0.0587 -0.75222,0.51647 -1.08877,1.45707 -0.83503,2.33364 1.17951,4.07326 3.07631,7.93723 5.56551,11.37179 h -13.76389 c 2.5236,-3.48166 4.43706,-7.40279 5.61314,-11.53822 0.25082,-0.88211 -0.0947,-1.82536 -0.85646,-2.33654 -0.76147,-0.51117 -1.76556,-0.47359 -2.48682,0.0929 -2.4085,1.89152 -5.3041,2.89164 -8.37406,2.89164 -7.47263,0 -13.55196,-6.05181 -13.55196,-13.49031 0,-8.91779 7.35304,-17.35905 13.52153,-22.87005 5.32739,-4.7596 10.72542,-8.21479 12.93389,-9.55649 2.20848,1.3417 7.60651,4.79689 12.9339,9.55649 11.17547,9.98458 13.52126,17.94773 13.52126,22.87005 0,7.43822 -6.07933,13.49005 -13.55169,13.49005 z"
       style="stroke-width:0.264583" />
  </g>
</svg>
